<svg xmlns="http://www.w3.org/2000/svg" viewBox="0 0 500 500" width="500" height="500">
  <defs>
    <linearGradient id="brand-gradient" x1="0%" y1="0%" x2="100%" y2="100%">
      <stop offset="0%" stop-color="#2563eb" />
      <stop offset="100%" stop-color="#9333ea" />
    </linearGradient>
  </defs>
  
  <!-- Main Left Figure (Black -> CurrentColor) -->
  <g fill="none" stroke="currentColor" stroke-width="4" stroke-linecap="round" stroke-linejoin="round">
    <path d="M 161.00 177.00 C 158.10 179.68 156.15 181.03 153.00 183.00 C 147.65 187.50 141.80 192.06 137.00 197.00 C 134.14 199.94 130.78 202.17 128.00 205.00 C 127.80 205.32 127.30 205.79 127.00 206.00 C 124.22 209.70 119.55 212.17 117.00 216.00 C 115.57 218.78 115.25 219.69 115.00 223.00 C 115.33 239.32 114.76 258.81 115.00 275.00 C 115.40 278.55 116.14 279.12 118.00 282.00 C 119.30 283.40 121.60 285.87 123.00 287.00 C 124.37 287.73 125.82 288.89 127.00 289.00 C 127.98 289.09 129.02 289.00 130.00 289.00 C 133.10 289.00 138.86 290.25 141.00 290.00 C 147.35 287.74 147.83 280.37 141.00 278.00 C 138.12 277.41 133.64 279.21 131.00 278.00 C 130.73 278.23 125.66 274.13 127.00 270.00 C 128.34 265.86 126.76 265.12 127.00 258.00 C 127.24 250.88 126.80 240.20 127.00 233.00 C 127.20 225.80 125.70 226.70 129.00 222.00 C 129.92 220.69 130.75 220.04 132.00 219.00 C 135.41 215.66 138.24 212.50 142.00 210.00 C 143.56 208.65 145.44 207.27 147.00 206.00 C 151.31 201.89 154.90 197.11 160.00 194.00 C 160.61 193.63 161.36 193.39 162.00 193.00 C 165.18 190.10 166.03 188.05 170.00 186.00 C 171.75 185.10 172.49 183.79 175.00 184.00 C 177.67 184.23 180.31 187.27 182.00 189.00 C 182.33 189.17 182.80 189.68 183.00 190.00 C 186.29 192.91 190.59 194.05 193.00 198.00 C 193.27 198.45 193.69 199.69 194.00 200.00 C 194.62 200.38 195.37 200.57 196.00 201.00 C 198.92 203.00 199.45 204.42 203.00 203.00 C 205.06 200.94 210.20 198.58 209.00 196.00 C 207.89 195.83 207.48 194.75 207.00 194.00 C 206.80 193.69 206.33 193.17 206.00 193.00 C 201.32 190.67 198.69 186.44 195.00 183.00 C 194.42 182.65 193.63 182.33 193.00 182.00 C 189.94 180.43 189.85 179.24 188.00 177.00 C 186.77 175.95 186.30 175.73 185.00 175.00 C 182.78 173.76 179.75 173.36 178.00 172.00 C 175.48 172.23 172.52 172.23 170.00 172.00 C 166.89 173.86 164.03 174.68 161.00 177.00 Z" />
    <path d="M 318.00 173.00 C 313.75 174.96 310.75 177.79 307.00 181.00 C 304.20 183.80 301.64 188.22 298.00 190.00 C 298.00 190.00 297.40 189.80 297.00 190.00 C 295.51 192.14 293.35 194.85 291.00 196.00 C 291.00 196.00 290.32 195.76 290.00 196.00 C 288.42 198.26 286.71 198.56 285.00 200.00 C 282.57 202.03 278.75 205.74 276.00 208.00 C 273.87 209.75 272.33 212.37 270.00 214.00 C 269.80 214.40 270.00 215.00 270.00 215.00 C 268.55 217.29 268.00 219.24 268.00 222.00 C 268.48 227.35 268.90 235.54 267.00 240.00 C 267.00 240.50 267.00 241.50 267.00 242.00 C 267.00 243.33 267.00 244.67 267.00 246.00 C 268.18 254.68 267.49 264.67 268.00 274.00 C 268.12 276.26 267.85 279.03 269.00 281.00 C 269.16 281.27 269.97 281.65 270.00 282.00 C 270.00 282.00 269.80 282.60 270.00 283.00 C 271.70 284.19 273.48 285.69 275.00 287.00 C 276.91 288.09 279.75 288.74 282.00 289.00 C 285.62 288.67 290.26 290.05 293.00 290.00 C 294.16 289.61 294.90 289.67 296.00 289.00 C 296.07 288.92 296.94 286.31 297.00 286.00 C 297.18 282.10 292.12 278.74 289.00 278.00 C 288.54 278.14 287.50 277.98 287.00 278.00 C 283.33 278.13 281.21 275.84 280.00 273.00 C 277.24 266.53 279.09 256.51 279.00 249.00 C 278.91 241.49 277.61 230.63 280.00 224.00 C 280.53 222.52 281.00 221.33 282.00 220.00 C 285.18 215.77 291.36 211.18 296.00 209.00 C 296.26 208.88 296.75 208.25 297.00 208.00 C 297.25 207.75 297.68 207.20 298.00 207.00 C 299.86 204.61 302.25 201.34 305.00 200.00 C 305.00 200.00 305.60 200.20 306.00 200.00 C 307.18 196.33 311.18 194.41 314.00 192.00 C 316.92 189.50 319.71 186.85 323.00 185.00 C 326.36 183.11 325.22 182.73 328.00 185.00 C 329.23 185.41 329.14 185.11 330.00 186.00 C 333.50 187.74 336.64 190.63 339.00 194.00 C 339.00 194.00 339.60 193.80 340.00 194.00 C 345.16 196.53 349.05 202.05 353.00 206.00 C 354.35 207.24 355.67 210.41 358.00 208.00 C 356.88 211.36 360.25 211.92 362.00 213.00 C 365.02 214.87 366.42 215.63 368.00 219.00 C 368.33 219.17 368.74 219.77 369.00 220.00 C 375.61 222.68 373.63 238.21 373.00 245.00 C 372.37 251.79 375.95 267.66 372.00 273.00 C 372.00 273.00 372.06 273.51 372.00 274.00 C 371.28 279.89 363.08 277.39 359.00 278.00 C 355.95 278.85 355.41 278.31 354.00 281.00 C 352.94 284.30 354.73 287.86 357.00 290.00 C 357.00 290.00 357.68 290.24 358.00 290.00 C 361.45 287.45 366.77 290.05 370.00 290.00 C 378.43 288.04 384.30 283.16 385.00 274.00 C 384.67 257.88 384.67 239.05 385.00 223.00 C 384.75 219.68 384.44 218.79 383.00 216.00 C 381.45 213.67 378.71 211.45 377.00 209.00 C 377.00 209.00 376.40 209.20 376.00 209.00 C 373.30 207.68 370.64 204.35 369.00 202.00 C 369.00 202.00 368.40 202.20 368.00 202.00 C 361.86 199.00 354.15 191.33 350.00 186.00 C 349.72 185.77 349.23 185.28 349.00 185.00 C 345.50 183.36 343.80 180.61 341.00 178.00 C 340.38 177.62 339.63 177.43 339.00 177.00 C 336.00 174.94 333.01 173.81 330.00 172.00 C 325.88 172.37 321.85 171.80 318.00 173.00 Z" />
  </g>
  
  <!-- Main Center/Right Figure (Blue -> Brand Gradient or Accent) -->
  <g fill="none" stroke="url(#brand-gradient)" stroke-width="4" stroke-linecap="round" stroke-linejoin="round">
     <path d="M 233.00 177.00 C 231.08 178.24 228.96 179.33 227.00 181.00 C 224.20 183.80 221.64 188.22 218.00 190.00 C 218.00 190.00 217.39 189.79 217.00 190.00 C 215.63 191.96 211.72 197.10 210.00 196.00 C 209.55 196.15 209.00 196.00 209.00 196.00 C 210.20 198.58 205.06 200.94 203.00 203.00 C 201.08 204.92 200.53 205.64 199.00 206.00 C 198.24 206.18 197.66 206.60 197.00 207.00 C 194.59 209.25 192.74 212.08 190.00 214.00 C 190.00 214.00 190.18 214.57 190.00 215.00 C 189.07 217.25 188.50 219.25 187.00 221.00 C 187.00 221.00 186.76 221.68 187.00 222.00 C 189.35 225.17 187.29 229.96 187.00 233.00 C 185.33 250.29 183.24 274.34 195.00 287.00 C 194.70 288.25 193.17 288.71 193.00 290.00 C 195.82 288.19 198.90 289.79 202.00 290.00 C 205.96 290.27 210.03 290.00 214.00 290.00 C 217.79 288.46 218.48 280.18 214.00 279.00 C 214.24 277.33 216.85 278.83 217.00 277.00 C 214.21 278.03 205.92 277.68 203.00 277.00 C 200.21 276.35 200.23 275.45 200.00 274.00 C 198.75 266.15 199.73 257.00 200.00 249.00 C 200.27 241.00 198.21 230.80 200.00 223.00 C 201.11 218.15 206.78 215.98 210.00 213.00 C 213.25 210.00 216.86 207.58 220.00 205.00 C 224.11 201.63 227.96 197.45 232.00 194.00 C 235.13 190.87 237.77 186.66 242.00 185.00 C 244.10 184.17 246.59 183.44 249.00 184.00 C 250.97 184.45 257.27 189.79 256.00 191.00 C 257.85 193.65 259.71 194.40 262.00 196.00 C 264.76 197.93 267.36 200.04 270.00 202.00 C 271.38 203.03 276.00 206.08 276.00 208.00 C 278.75 205.74 282.57 202.03 285.00 200.00 C 281.56 199.65 275.48 190.48 273.00 188.00 C 271.11 186.39 268.79 184.56 267.00 183.00 C 264.13 180.97 261.69 178.51 259.00 176.00 C 258.42 175.65 257.63 175.32 257.00 175.00 C 251.21 172.04 246.69 172.00 240.00 172.00 C 240.00 172.00 239.44 171.84 239.00 172.00 C 237.27 173.81 235.26 175.54 233.00 177.00 Z" />
  </g>
</svg>